<mxfile host="www.draw.io" modified="2020-01-15T14:00:11.532Z" agent="Mozilla/5.0 (Macintosh; Intel Mac OS X 10_13_6) AppleWebKit/537.36 (KHTML, like Gecko) Chrome/79.0.3945.88 Safari/537.36" etag="BSsA5dX8vt-sYf04SkZ_" version="12.5.4" type="github">
  <diagram id="Dr7E2pnEQ7SnMgTV5RkD" name="Page-1">
    <mxGraphModel dx="933" dy="654" grid="1" gridSize="10" guides="1" tooltips="1" connect="1" arrows="1" fold="1" page="1" pageScale="1" pageWidth="827" pageHeight="1169" math="0" shadow="0">
      <root>
        <mxCell id="0"/>
        <mxCell id="1" parent="0"/>
        <mxCell id="Fuk4StQesD5K4FotLebA-1" value="区块链数据读取" style="rounded=1;whiteSpace=wrap;html=1;" vertex="1" parent="1">
          <mxGeometry x="210" y="460" width="120" height="60" as="geometry"/>
        </mxCell>
        <mxCell id="Fuk4StQesD5K4FotLebA-2" value="区块链数据写入" style="rounded=1;whiteSpace=wrap;html=1;" vertex="1" parent="1">
          <mxGeometry x="380" y="460" width="120" height="60" as="geometry"/>
        </mxCell>
        <mxCell id="Fuk4StQesD5K4FotLebA-3" value="节点数据过滤与验证" style="rounded=1;whiteSpace=wrap;html=1;" vertex="1" parent="1">
          <mxGeometry x="210" y="360" width="120" height="60" as="geometry"/>
        </mxCell>
        <mxCell id="Fuk4StQesD5K4FotLebA-4" value="节点数据管理" style="rounded=0;whiteSpace=wrap;html=1;" vertex="1" parent="1">
          <mxGeometry x="210" y="270" width="120" height="60" as="geometry"/>
        </mxCell>
        <mxCell id="Fuk4StQesD5K4FotLebA-5" value="节点数据查询接口" style="rounded=0;whiteSpace=wrap;html=1;" vertex="1" parent="1">
          <mxGeometry x="210" y="180" width="120" height="60" as="geometry"/>
        </mxCell>
        <mxCell id="Fuk4StQesD5K4FotLebA-6" value="账户数据过滤与验证" style="rounded=1;whiteSpace=wrap;html=1;" vertex="1" parent="1">
          <mxGeometry x="390" y="360" width="120" height="60" as="geometry"/>
        </mxCell>
        <mxCell id="Fuk4StQesD5K4FotLebA-7" value="节点查询验证" style="rounded=0;whiteSpace=wrap;html=1;" vertex="1" parent="1">
          <mxGeometry x="210" y="90" width="120" height="60" as="geometry"/>
        </mxCell>
        <mxCell id="Fuk4StQesD5K4FotLebA-8" value="账户数据管理" style="rounded=0;whiteSpace=wrap;html=1;" vertex="1" parent="1">
          <mxGeometry x="390" y="270" width="120" height="60" as="geometry"/>
        </mxCell>
        <mxCell id="Fuk4StQesD5K4FotLebA-9" value="账户数据查询接口" style="rounded=0;whiteSpace=wrap;html=1;" vertex="1" parent="1">
          <mxGeometry x="390" y="180" width="120" height="60" as="geometry"/>
        </mxCell>
        <mxCell id="Fuk4StQesD5K4FotLebA-10" value="账户查询验证" style="rounded=0;whiteSpace=wrap;html=1;" vertex="1" parent="1">
          <mxGeometry x="390" y="90" width="120" height="60" as="geometry"/>
        </mxCell>
        <mxCell id="Fuk4StQesD5K4FotLebA-11" value="链上数据存储" style="rounded=1;whiteSpace=wrap;html=1;" vertex="1" parent="1">
          <mxGeometry x="550" y="460" width="140" height="60" as="geometry"/>
        </mxCell>
        <mxCell id="Fuk4StQesD5K4FotLebA-12" value="链上数据查询接口" style="rounded=1;whiteSpace=wrap;html=1;" vertex="1" parent="1">
          <mxGeometry x="540" y="180" width="120" height="60" as="geometry"/>
        </mxCell>
        <mxCell id="Fuk4StQesD5K4FotLebA-13" value="链上数据查询验证" style="rounded=1;whiteSpace=wrap;html=1;" vertex="1" parent="1">
          <mxGeometry x="550" y="90" width="120" height="60" as="geometry"/>
        </mxCell>
      </root>
    </mxGraphModel>
  </diagram>
</mxfile>
